<svg width="629" height="1015" xmlns="http://www.w3.org/2000/svg" xmlns:xlink="http://www.w3.org/1999/xlink" overflow="hidden"><defs><clipPath id="clip0"><rect x="2149" y="256" width="629" height="1015"/></clipPath><clipPath id="clip1"><rect x="2451" y="255" width="328" height="1016"/></clipPath><clipPath id="clip2"><rect x="2451" y="255" width="328" height="1016"/></clipPath><clipPath id="clip3"><rect x="2149" y="631" width="326" height="266"/></clipPath><clipPath id="clip4"><rect x="2149" y="631" width="326" height="266"/></clipPath><clipPath id="clip5"><rect x="2149" y="631" width="326" height="327"/></clipPath></defs><g clip-path="url(#clip0)" transform="translate(-2149 -256)"><g clip-path="url(#clip1)"><g clip-path="url(#clip2)"><path d="M339.193 129.761C316.725 129.761 298.299 148.203 298.299 170.67L298.299 271.94C298.299 294.408 316.73 312.834 339.193 312.834L622.614 312.834C645.082 312.834 663.508 294.402 663.508 271.94L663.508 170.67C663.508 148.202 645.077 129.761 622.614 129.761ZM339.193 152.196 622.614 152.196C633.037 152.196 641.073 160.247 641.073 170.67L641.073 271.94C641.073 282.363 633.038 290.398 622.614 290.398L339.193 290.404C328.77 290.404 320.734 282.369 320.734 271.945L320.734 170.67C320.734 160.246 328.769 152.196 339.193 152.196ZM480.91 322.301C479.918 322.301 478.967 322.693 478.264 323.396 477.567 324.093 477.169 325.043 477.169 326.036L477.169 377.182 230.902 377.187C230.875 377.182 230.843 377.182 230.816 377.187 229.823 377.187 228.873 377.579 228.17 378.282 227.472 378.98 227.075 379.93 227.075 380.923L227.075 434.757C227.075 435.75 227.472 436.7 228.17 437.404 228.873 438.101 229.823 438.499 230.816 438.499 231.809 438.499 232.759 438.101 233.457 437.404 234.16 436.7 234.552 435.75 234.552 434.757L234.552 384.664 477.164 384.664 477.164 433.679C477.164 434.672 477.562 435.622 478.259 436.32 478.962 437.023 479.912 437.415 480.905 437.415 481.898 437.415 482.848 437.023 483.552 436.32 484.249 435.622 484.646 434.672 484.646 433.679L484.646 384.664 727.259 384.664 727.259 434.757C727.259 436.824 728.934 438.499 730.995 438.499 733.061 438.499 734.736 436.824 734.736 434.757L734.736 381.01 734.736 380.924C734.736 379.931 734.339 378.981 733.641 378.283 732.938 377.58 731.988 377.188 730.995 377.188L484.645 377.188 484.645 326.037C484.645 325.044 484.248 324.094 483.55 323.396 482.847 322.693 481.897 322.301 480.904 322.301ZM177.154 447.96C153.801 447.96 134.655 467.111 134.655 490.459L134.655 597.193C134.655 620.546 153.806 639.692 177.154 639.692L283.888 639.697C307.241 639.697 326.387 620.546 326.387 597.199L326.392 490.459C326.392 467.105 307.241 447.96 283.894 447.96ZM427.543 447.96C404.19 447.96 385.044 467.111 385.044 490.459L385.044 597.193C385.044 620.546 404.196 639.692 427.543 639.692L534.278 639.692C557.631 639.692 576.777 620.541 576.777 597.193L576.777 490.459C576.777 467.106 557.625 447.96 534.278 447.96ZM677.933 447.96C654.58 447.96 635.434 467.111 635.434 490.459L635.434 597.193C635.434 620.546 654.585 639.692 677.933 639.692L784.667 639.697C808.015 639.697 827.166 620.546 827.166 597.193L827.166 490.459C827.166 467.105 808.015 447.96 784.667 447.96ZM177.154 470.395 283.888 470.395C295.197 470.395 303.956 479.149 303.956 490.463L303.956 597.197C303.956 608.506 295.202 617.265 283.888 617.265L177.154 617.26C165.845 617.26 157.086 608.506 157.086 597.192L157.091 490.457C157.091 479.148 165.845 470.39 177.159 470.39ZM427.543 470.395 534.278 470.395C545.587 470.395 554.346 479.149 554.346 490.463L554.346 597.197C554.346 608.506 545.591 617.265 534.278 617.265L427.543 617.26C416.234 617.26 407.475 608.506 407.475 597.192L407.475 490.457C407.475 479.148 416.23 470.39 427.543 470.39ZM677.933 470.395 784.667 470.395C795.976 470.395 804.735 479.149 804.735 490.463L804.735 597.197C804.735 608.506 795.981 617.265 784.667 617.265L677.933 617.26C666.624 617.26 657.865 608.506 657.865 597.192L657.865 490.457C657.865 479.148 666.619 470.39 677.933 470.39Z" fill="#FFFFFF" transform="matrix(-1.93854e-16 -1.05529 1 -1.83697e-16 2128.12 1271)"/><path d="M25.785-1.54578C24.454-0.858769 23.0638-0.343507 21.6201 0 20.187 0.354239 18.6842 0.536724 17.1116 0.536724 12.4421 0.536724 8.74405-0.762161 6.01207-3.37074 3.27473-5.98992 1.91141-9.53244 1.91141-13.998 1.91141-18.4744 3.27471-22.0167 6.01207-24.6253 8.74405-27.2445 12.4421-28.5542 17.1116-28.5542 18.6842-28.5542 20.1871-28.3718 21.6201-28.0175 23.0639-27.674 24.454-27.1587 25.785-26.4717L25.785-20.675C24.4379-21.5767 23.1121-22.2422 21.8133-22.6716 20.509-23.101 19.135-23.3157 17.6912-23.3157 15.1149-23.3157 13.086-22.4837 11.6154-20.8252 10.1394-19.1775 9.404-16.9017 9.404-13.9979 9.404-11.1049 10.1393-8.82926 11.6154-7.17066 13.086-5.52293 15.1149-4.70167 17.6912-4.70167 19.135-4.70167 20.509-4.90563 21.8133-5.32427 23.1122-5.75365 24.4379-6.42457 25.785-7.34245Z" fill="#FFFFFF" transform="matrix(-1.93854e-16 -1.05529 1 -1.83697e-16 3012.99 1169.5)"/><path d="M18.8709-15.3081C18.2698-15.5764 17.674-15.7804 17.0889-15.9092 16.5146-16.0488 15.935-16.1239 15.35-16.1239 13.6164-16.1239 12.2852-15.5657 11.3568-14.4492 10.4229-13.3436 9.96131-11.7656 9.96131-9.70457L9.96131-0.00048091 3.24147-0.00048091 3.24147-21.0396 9.96131-21.0396 9.96131-17.5831C10.8201-18.9571 11.8077-19.9555 12.924-20.5888 14.0511-21.2329 15.3983-21.5549 16.9602-21.5549 17.1856-21.5549 17.4325-21.5388 17.6902-21.512 17.9585-21.4959 18.345-21.4583 18.8495-21.4046Z" fill="#FFFFFF" transform="matrix(-1.93854e-16 -1.05529 1 -1.83697e-16 3012.99 1139.7)"/><path d="M24.2393-10.5843 24.2393-8.65213 8.5025-8.65213C8.67425-7.07419 9.24318-5.89335 10.22-5.10974 11.1915-4.32075 12.5601-3.92893 14.3207-3.92893 15.7376-3.92893 17.1814-4.13289 18.6574-4.55153 20.1441-4.98091 21.6685-5.61426 23.2303-6.46226L23.2303-1.28821C21.6417-0.68707 20.0529-0.236223 18.4641 0.0643596 16.8754 0.37566 15.2866 0.536682 13.6978 0.536682 9.88711 0.536682 6.92429-0.429426 4.80952-2.3617 2.7056-4.29386 1.65351-7.00441 1.65351-10.4986 1.65351-13.9336 2.6894-16.628 4.76651-18.5924 6.83827-20.5676 9.68829-21.5551 13.3113-21.5551 16.6175-21.5551 19.2636-20.5514 21.2549-18.5494 23.2408-16.5582 24.2391-13.9014 24.2391-10.5843ZM17.3262-12.8171C17.3262-14.0891 16.9505-15.1143 16.2098-15.8872 15.4638-16.6708 14.4923-17.068 13.29-17.068 11.9858-17.068 10.9283-16.7031 10.1126-15.9731 9.29682-15.2431 8.78687-14.1911 8.58824-12.8171Z" fill="#FFFFFF" transform="matrix(-1.93854e-16 -1.05529 1 -1.83697e-16 3012.99 1119.68)"/><path d="M12.6669-9.46789C11.2607-9.46789 10.2033-9.23172 9.48946-8.75941 8.78634-8.28709 8.43748-7.58397 8.43748-6.6555 8.43748-5.79673 8.72194-5.12043 9.29625-4.63732 9.86518-4.165 10.6542-3.92885 11.6579-3.92885 12.93-3.92885 13.998-4.37969 14.8568-5.28141 15.7263-6.19385 16.1664-7.33174 16.1664-8.69505L16.1664-9.46795ZM22.9293-12.0013 22.9293 0 16.1664 0 16.1664-3.113C15.2647-1.83558 14.245-0.906997 13.1177-0.322073 11.9852 0.246858 10.6112 0.536696 8.99564 0.536696 6.81656 0.536696 5.05066-0.0912768 3.69271-1.3526 2.32941-2.62464 1.6531-4.27777 1.6531-6.31202 1.6531-8.7703 2.49576-10.5737 4.18653-11.7223 5.88799-12.8816 8.55554-13.4612 12.1945-13.4612L16.1663-13.4612 16.1663-13.998C16.1663-15.0553 15.7423-15.8282 14.8996-16.3166 14.0516-16.8158 12.742-17.0681 10.9707-17.0681 9.52151-17.0681 8.17977-16.9231 6.93448-16.6387 5.7-16.3488 4.55672-15.9195 3.49941-15.3505L3.49941-20.4817C4.92716-20.8252 6.3655-21.0882 7.81469-21.2761 9.27459-21.4585 10.7345-21.5552 12.1944-21.5552 15.9837-21.5552 18.721-20.8037 20.3957-19.3009 22.0811-17.8089 22.9292-15.3774 22.9292-12.0014Z" fill="#FFFFFF" transform="matrix(-1.93854e-16 -1.05529 1 -1.83697e-16 3012.99 1092.15)"/><path d="M10.5843-27.0079 10.5843-21.0394 17.5189-21.0394 17.5189-16.2303 10.5843-16.2303 10.5843-7.29912C10.5843-6.32227 10.7775-5.66746 11.164-5.32395 11.5504-4.98045 12.3126-4.80869 13.4612-4.80869L16.9177-4.80869 16.9177 0.000412209 11.164 0.000412209C8.50178 0.000412209 6.61249-0.547056 5.49609-1.65268 4.39042-2.76908 3.843-4.64766 3.843-7.29912L3.843-16.2303 0.515234-16.2303 0.515234-21.0394 3.843-21.0394 3.843-27.0079Z" fill="#FFFFFF" transform="matrix(-1.93854e-16 -1.05529 1 -1.83697e-16 3012.99 1064.75)"/><path d="M24.2393-10.5843 24.2393-8.65213 8.5025-8.65213C8.67425-7.07419 9.24318-5.89335 10.22-5.10974 11.1915-4.32075 12.5601-3.92893 14.3207-3.92893 15.7376-3.92893 17.1814-4.13289 18.6574-4.55153 20.1441-4.98091 21.6685-5.61426 23.2303-6.46226L23.2303-1.28821C21.6417-0.68707 20.0529-0.236223 18.4641 0.0643596 16.8754 0.37566 15.2866 0.536682 13.6978 0.536682 9.88711 0.536682 6.92429-0.429426 4.80952-2.3617 2.7056-4.29386 1.65351-7.00441 1.65351-10.4986 1.65351-13.9336 2.6894-16.628 4.76651-18.5924 6.83827-20.5676 9.68829-21.5551 13.3113-21.5551 16.6175-21.5551 19.2636-20.5514 21.2549-18.5494 23.2408-16.5582 24.2391-13.9014 24.2391-10.5843ZM17.3262-12.8171C17.3262-14.0891 16.9505-15.1143 16.2098-15.8872 15.4638-16.6708 14.4923-17.068 13.29-17.068 11.9858-17.068 10.9283-16.7031 10.1126-15.9731 9.29682-15.2431 8.78687-14.1911 8.58824-12.8171Z" fill="#FFFFFF" transform="matrix(-1.93854e-16 -1.05529 1 -1.83697e-16 3012.99 1045.34)"/><path d="M17.5409-17.9696 17.5409-29.2409 24.3037-29.2409 24.3037-0.000137403 17.5409-0.000137403 17.5409-3.04884C16.6231-1.80362 15.6087-0.891196 14.4922-0.32221 13.3756 0.246776 12.0769 0.536559 10.6063 0.536559 8.01389 0.536559 5.88841-0.493964 4.22995-2.55501 2.56614-4.61605 1.73952-7.26216 1.73952-10.4986 1.73952-13.7458 2.56608-16.4026 4.22995-18.4637 5.88841-20.5247 8.01389-21.5552 10.6063-21.5552 12.0662-21.5552 13.3543-21.26 14.4707-20.675 15.5979-20.0846 16.623-19.1829 17.5409-17.9698ZM13.1181-4.33658C14.5459-4.33658 15.6407-4.85721 16.4029-5.90379 17.1597-6.96115 17.5408-8.49082 17.5408-10.4983 17.5408-12.5002 17.1597-14.0246 16.4029-15.0712 15.6407-16.1285 14.5458-16.6598 13.1181-16.6598 11.685-16.6598 10.5902-16.1285 9.83338-15.0712 9.07122-14.0246 8.69552-12.5002 8.69552-10.4983 8.69552-8.49096 9.07124-6.96125 9.83338-5.90379 10.5902-4.85717 11.6852-4.33658 13.1181-4.33658Z" fill="#FFFFFF" transform="matrix(-1.93854e-16 -1.05529 1 -1.83697e-16 3012.99 1017.8)"/><path d="M14.4273-4.33671C15.8711-4.33671 16.9715-4.85735 17.7335-5.90393 18.4903-6.96129 18.8714-8.49096 18.8714-10.4984 18.8714-12.5004 18.4903-14.0247 17.7335-15.0713 16.9713-16.1287 15.871-16.66 14.4273-16.66 12.9781-16.66 11.8724-16.1286 11.0996-15.0713 10.3374-14.0086 9.96169-12.4843 9.96169-10.4984 9.96169-8.50717 10.3374-6.98282 11.0996-5.9255 11.8724-4.86277 12.9781-4.33685 14.4273-4.33685ZM9.96172-17.9697C10.8903-19.1827 11.9155-20.0845 13.0318-20.6749 14.159-21.2599 15.4578-21.5551 16.9177-21.5551 19.5208-21.5551 21.6517-20.5246 23.3155-18.4636 24.974-16.4025 25.8059-13.7457 25.8059-10.4984 25.8059-7.26191 24.974-4.61594 23.3155-2.5549 21.6517-0.493854 19.5208 0.536669 16.9177 0.536669 15.4578 0.536669 14.159 0.246831 13.0318-0.3221 11.9155-0.907135 10.8903-1.81416 9.96172-3.04873L9.96172-2.74806e-05 3.24189-2.74806e-05 3.24189-29.2408 9.96172-29.2408Z" fill="#FFFFFF" transform="matrix(-1.93854e-16 -1.05529 1 -1.83697e-16 3012.99 974.605)"/><path d="M0.472323-21.0391 7.19215-21.0391 12.86-6.7616 17.6691-21.0391 24.389-21.0391 15.5436 1.99784C14.6527 4.32723 13.6168 5.95889 12.4306 6.89282 11.2391 7.83747 9.68258 8.30972 7.75042 8.30972L3.84296 8.30972 3.84296 3.88699 5.94687 3.88699C7.0901 3.88699 7.92204 3.69914 8.4373 3.32879 8.96329 2.96918 9.37121 2.32511 9.66104 1.39663L9.85425 0.816957Z" fill="#FFFFFF" transform="matrix(-1.93854e-16 -1.05529 1 -1.83697e-16 3012.99 945.543)"/><path d="M10.756-22.5863 10.756-5.47551 13.3538-5.47551C16.3165-5.47551 18.5762-6.20546 20.1381-7.66544 21.6946-9.12535 22.4782-11.2562 22.4782-14.0632 22.4782-16.8381 21.6945-18.9475 20.1381-20.3967 18.5923-21.8566 16.3273-22.5866 13.3538-22.5866ZM3.54239-28.0396 11.164-28.0396C15.415-28.0396 18.5816-27.739 20.6749-27.1378 22.7627-26.5367 24.5501-25.5062 26.0421-24.0463 27.3571-22.785 28.3287-21.325 28.9619-19.6666 29.606-18.0188 29.928-16.151 29.928-14.0631 29.928-11.943 29.606-10.0537 28.9619-8.39526 28.3286-6.73144 27.3571-5.26618 26.0421-3.9941 24.5392-2.54491 22.7359-1.51439 20.6319-0.902532 18.528-0.301393 15.372-0.000824418 11.164-0.000824418L3.54239-0.000824418Z" fill="#FFFFFF" transform="matrix(-1.93854e-16 -1.05529 1 -1.83697e-16 3012.99 904.943)"/><path d="M12.6669-9.46789C11.2607-9.46789 10.2033-9.23172 9.48946-8.75941 8.78634-8.28709 8.43748-7.58397 8.43748-6.6555 8.43748-5.79673 8.72194-5.12043 9.29625-4.63732 9.86518-4.165 10.6542-3.92885 11.6579-3.92885 12.93-3.92885 13.998-4.37969 14.8568-5.28141 15.7263-6.19385 16.1664-7.33174 16.1664-8.69505L16.1664-9.46795ZM22.9293-12.0013 22.9293 0 16.1664 0 16.1664-3.113C15.2647-1.83558 14.245-0.906997 13.1177-0.322073 11.9852 0.246858 10.6112 0.536696 8.99564 0.536696 6.81656 0.536696 5.05066-0.0912768 3.69271-1.3526 2.32941-2.62464 1.6531-4.27777 1.6531-6.31202 1.6531-8.7703 2.49576-10.5737 4.18653-11.7223 5.88799-12.8816 8.55554-13.4612 12.1945-13.4612L16.1663-13.4612 16.1663-13.998C16.1663-15.0553 15.7423-15.8282 14.8996-16.3166 14.0516-16.8158 12.742-17.0681 10.9707-17.0681 9.52151-17.0681 8.17977-16.9231 6.93448-16.6387 5.7-16.3488 4.55672-15.9195 3.49941-15.3505L3.49941-20.4817C4.92716-20.8252 6.3655-21.0882 7.81469-21.2761 9.27459-21.4585 10.7345-21.5552 12.1944-21.5552 15.9837-21.5552 18.721-20.8037 20.3957-19.3009 22.0811-17.8089 22.9292-15.3774 22.9292-12.0014Z" fill="#FFFFFF" transform="matrix(-1.93854e-16 -1.05529 1 -1.83697e-16 3012.99 871.242)"/><path d="M0.579676-21.0391 7.29951-21.0391 12.5594-6.50466 17.7765-21.0391 24.5177-21.0391 16.2307 0 8.84529 0Z" fill="#FFFFFF" transform="matrix(-1.93854e-16 -1.05529 1 -1.83697e-16 3012.99 843.85)"/><path d="M3.24189-21.0391 9.96172-21.0391 9.96172 0 3.24189 0ZM3.24189-29.2405 9.96172-29.2405 9.96172-23.7443 3.24189-23.7443Z" fill="#FFFFFF" transform="matrix(-1.93854e-16 -1.05529 1 -1.83697e-16 3012.99 817.382)"/><path d="M17.5409-17.9696 17.5409-29.2409 24.3037-29.2409 24.3037-0.000137403 17.5409-0.000137403 17.5409-3.04884C16.6231-1.80362 15.6087-0.891196 14.4922-0.32221 13.3756 0.246776 12.0769 0.536559 10.6063 0.536559 8.01389 0.536559 5.88841-0.493964 4.22995-2.55501 2.56614-4.61605 1.73952-7.26216 1.73952-10.4986 1.73952-13.7458 2.56608-16.4026 4.22995-18.4637 5.88841-20.5247 8.01389-21.5552 10.6063-21.5552 12.0662-21.5552 13.3543-21.26 14.4707-20.675 15.5979-20.0846 16.623-19.1829 17.5409-17.9698ZM13.1181-4.33658C14.5459-4.33658 15.6407-4.85721 16.4029-5.90379 17.1597-6.96115 17.5408-8.49082 17.5408-10.4983 17.5408-12.5002 17.1597-14.0246 16.4029-15.0712 15.6407-16.1285 14.5458-16.6598 13.1181-16.6598 11.685-16.6598 10.5902-16.1285 9.83338-15.0712 9.07122-14.0246 8.69552-12.5002 8.69552-10.4983 8.69552-8.49096 9.07124-6.96125 9.83338-5.90379 10.5902-4.85717 11.6852-4.33658 13.1181-4.33658Z" fill="#FFFFFF" transform="matrix(-1.93854e-16 -1.05529 1 -1.83697e-16 3012.99 803.465)"/><path d="M25.785-1.54578C24.454-0.858769 23.0638-0.343507 21.6201 0 20.187 0.354239 18.6842 0.536724 17.1116 0.536724 12.4421 0.536724 8.74405-0.762161 6.01207-3.37074 3.27473-5.98992 1.91141-9.53244 1.91141-13.998 1.91141-18.4744 3.27471-22.0167 6.01207-24.6253 8.74405-27.2445 12.4421-28.5542 17.1116-28.5542 18.6842-28.5542 20.1871-28.3718 21.6201-28.0175 23.0639-27.674 24.454-27.1587 25.785-26.4717L25.785-20.675C24.4379-21.5767 23.1121-22.2422 21.8133-22.6716 20.509-23.101 19.135-23.3157 17.6912-23.3157 15.1149-23.3157 13.086-22.4837 11.6154-20.8252 10.1394-19.1775 9.404-16.9017 9.404-13.9979 9.404-11.1049 10.1393-8.82926 11.6154-7.17066 13.086-5.52293 15.1149-4.70167 17.6912-4.70167 19.135-4.70167 20.509-4.90563 21.8133-5.32427 23.1122-5.75365 24.4379-6.42457 25.785-7.34245Z" fill="#FFFFFF" transform="matrix(-1.93854e-16 -1.05529 1 -1.83697e-16 3012.99 760.271)"/><path d="M24.389-12.8171 24.389 0 17.6262 0 17.6262-9.76853C17.6262-11.615 17.5833-12.8815 17.4974-13.5685 17.4115-14.2556 17.2666-14.7601 17.068-15.0929 16.8104-15.5223 16.4508-15.8551 15.9945-16.102 15.549-16.3435 15.0392-16.4669 14.4702-16.4669 13.064-16.4669 11.9637-15.9195 11.164-14.8353 10.3589-13.7618 9.96172-12.2643 9.96172-10.3482L9.96172-0.000137403 3.24189-0.000137403 3.24189-29.2409 9.96172-29.2409 9.96172-17.9696C10.9761-19.1826 12.0496-20.0843 13.1822-20.6748 14.3254-21.2598 15.5867-21.555 16.9608-21.555 19.3921-21.555 21.2385-20.8036 22.4997-19.3008 23.7557-17.8087 24.389-15.6511 24.389-12.817Z" fill="#FFFFFF" transform="matrix(-1.93854e-16 -1.05529 1 -1.83697e-16 3012.99 730.473)"/><path d="M18.8709-15.3081C18.2698-15.5764 17.674-15.7804 17.0889-15.9092 16.5146-16.0488 15.935-16.1239 15.35-16.1239 13.6164-16.1239 12.2852-15.5657 11.3568-14.4492 10.4229-13.3436 9.96131-11.7656 9.96131-9.70457L9.96131-0.00048091 3.24147-0.00048091 3.24147-21.0396 9.96131-21.0396 9.96131-17.5831C10.8201-18.9571 11.8077-19.9555 12.924-20.5888 14.0511-21.2329 15.3983-21.5549 16.9602-21.5549 17.1856-21.5549 17.4325-21.5388 17.6902-21.512 17.9585-21.4959 18.345-21.4583 18.8495-21.4046Z" fill="#FFFFFF" transform="matrix(-1.93854e-16 -1.05529 1 -1.83697e-16 3012.99 701.569)"/><path d="M3.24189-21.0391 9.96172-21.0391 9.96172 0 3.24189 0ZM3.24189-29.2405 9.96172-29.2405 9.96172-23.7443 3.24189-23.7443Z" fill="#FFFFFF" transform="matrix(-1.93854e-16 -1.05529 1 -1.83697e-16 3012.99 681.547)"/><path d="M19.6651-20.3741 19.6651-15.2644C18.232-15.8655 16.8419-16.3164 15.5002-16.6169 14.153-16.9175 12.8863-17.0678 11.7001-17.0678 10.4227-17.0678 9.4727-16.9068 8.84477-16.5955 8.22753-16.2788 7.92159-15.785 7.92159-15.1141 7.92159-14.5828 8.15775-14.1749 8.63006-13.8904 9.10239-13.6005 9.94505-13.3859 11.1635-13.2463L12.3443-13.0746C15.7901-12.6291 18.1088-11.9045 19.3003-10.9062 20.4865-9.90251 21.0823-8.33525 21.0823-6.2044 21.0823-3.95553 20.2504-2.26479 18.5919-1.13767 16.9442-0.02127 14.4805 0.536998 11.2065 0.536998 9.8003 0.536998 8.35647 0.429652 6.86977 0.214953 5.39378 0.000261066 3.87479-0.327143 2.31829-0.772631L2.31829-5.88237C3.64938-5.22219 5.01263-4.72841 6.41895-4.40103 7.83585-4.08436 9.27432-3.92871 10.7342-3.92871 12.0492-3.92871 13.0368-4.10583 13.6969-4.46543 14.3517-4.83577 14.6845-5.37787 14.6845-6.09709 14.6845-6.69823 14.4537-7.13835 13.9975-7.42818 13.5359-7.72875 12.6288-7.95418 11.2709-8.1152L10.09-8.26549C7.09507-8.63583 5.00187-9.32822 3.79959-10.348 2.59732-11.3624 1.99618-12.9028 1.99618-14.9639 1.99618-17.1967 2.75297-18.8498 4.27185-19.9233 5.80155-21.0075 8.14702-21.555 11.3137-21.555 12.5429-21.555 13.8363-21.453 15.1996-21.2544 16.5737-21.0665 18.0604-20.7713 19.6652-20.3742Z" fill="#FFFFFF" transform="matrix(-1.93854e-16 -1.05529 1 -1.83697e-16 3012.99 667.63)"/><path d="M10.5843-27.0079 10.5843-21.0394 17.5189-21.0394 17.5189-16.2303 10.5843-16.2303 10.5843-7.29912C10.5843-6.32227 10.7775-5.66746 11.164-5.32395 11.5504-4.98045 12.3126-4.80869 13.4612-4.80869L16.9177-4.80869 16.9177 0.000412209 11.164 0.000412209C8.50178 0.000412209 6.61249-0.547056 5.49609-1.65268 4.39042-2.76908 3.843-4.64766 3.843-7.29912L3.843-16.2303 0.515234-16.2303 0.515234-21.0394 3.843-21.0394 3.843-27.0079Z" fill="#FFFFFF" transform="matrix(-1.93854e-16 -1.05529 1 -1.83697e-16 3012.99 643.467)"/><path d="M24.2393-10.5843 24.2393-8.65213 8.5025-8.65213C8.67425-7.07419 9.24318-5.89335 10.22-5.10974 11.1915-4.32075 12.5601-3.92893 14.3207-3.92893 15.7376-3.92893 17.1814-4.13289 18.6574-4.55153 20.1441-4.98091 21.6685-5.61426 23.2303-6.46226L23.2303-1.28821C21.6417-0.68707 20.0529-0.236223 18.4641 0.0643596 16.8754 0.37566 15.2866 0.536682 13.6978 0.536682 9.88711 0.536682 6.92429-0.429426 4.80952-2.3617 2.7056-4.29386 1.65351-7.00441 1.65351-10.4986 1.65351-13.9336 2.6894-16.628 4.76651-18.5924 6.83827-20.5676 9.68829-21.5551 13.3113-21.5551 16.6175-21.5551 19.2636-20.5514 21.2549-18.5494 23.2408-16.5582 24.2391-13.9014 24.2391-10.5843ZM17.3262-12.8171C17.3262-14.0891 16.9505-15.1143 16.2098-15.8872 15.4638-16.6708 14.4923-17.068 13.29-17.068 11.9858-17.068 10.9283-16.7031 10.1126-15.9731 9.29682-15.2431 8.78687-14.1911 8.58824-12.8171Z" fill="#FFFFFF" transform="matrix(-1.93854e-16 -1.05529 1 -1.83697e-16 3012.99 624.056)"/><path d="M24.389-12.8171 24.389 0 17.6262 0 17.6262-9.8114C17.6262-11.6255 17.5833-12.8815 17.4974-13.5685 17.4115-14.2556 17.2666-14.7601 17.068-15.0929 16.8104-15.5223 16.4508-15.8551 15.9945-16.102 15.549-16.3435 15.0392-16.4669 14.4702-16.4669 13.064-16.4669 11.9637-15.9195 11.164-14.8353 10.3589-13.7618 9.96172-12.2643 9.96172-10.3482L9.96172-0.000137403 3.24189-0.000137403 3.24189-21.0393 9.96172-21.0393 9.96172-17.9692C10.9761-19.1822 12.0496-20.0839 13.1822-20.6743 14.3254-21.2594 15.5867-21.5546 16.9608-21.5546 19.3921-21.5546 21.2385-20.8031 22.4997-19.3003 23.7557-17.8083 24.389-15.6506 24.389-12.8166Z" fill="#FFFFFF" transform="matrix(-1.93854e-16 -1.05529 1 -1.83697e-16 3012.99 596.523)"/><path d="M19.6651-20.3741 19.6651-15.2644C18.232-15.8655 16.8419-16.3164 15.5002-16.6169 14.153-16.9175 12.8863-17.0678 11.7001-17.0678 10.4227-17.0678 9.4727-16.9068 8.84477-16.5955 8.22753-16.2788 7.92159-15.785 7.92159-15.1141 7.92159-14.5828 8.15775-14.1749 8.63006-13.8904 9.10239-13.6005 9.94505-13.3859 11.1635-13.2463L12.3443-13.0746C15.7901-12.6291 18.1088-11.9045 19.3003-10.9062 20.4865-9.90251 21.0823-8.33525 21.0823-6.2044 21.0823-3.95553 20.2504-2.26479 18.5919-1.13767 16.9442-0.02127 14.4805 0.536998 11.2065 0.536998 9.8003 0.536998 8.35647 0.429652 6.86977 0.214953 5.39378 0.000261066 3.87479-0.327143 2.31829-0.772631L2.31829-5.88237C3.64938-5.22219 5.01263-4.72841 6.41895-4.40103 7.83585-4.08436 9.27432-3.92871 10.7342-3.92871 12.0492-3.92871 13.0368-4.10583 13.6969-4.46543 14.3517-4.83577 14.6845-5.37787 14.6845-6.09709 14.6845-6.69823 14.4537-7.13835 13.9975-7.42818 13.5359-7.72875 12.6288-7.95418 11.2709-8.1152L10.09-8.26549C7.09507-8.63583 5.00187-9.32822 3.79959-10.348 2.59732-11.3624 1.99618-12.9028 1.99618-14.9639 1.99618-17.1967 2.75297-18.8498 4.27185-19.9233 5.80155-21.0075 8.14702-21.555 11.3137-21.555 12.5429-21.555 13.8363-21.453 15.1996-21.2544 16.5737-21.0665 18.0604-20.7713 19.6652-20.3742Z" fill="#FFFFFF" transform="matrix(-1.93854e-16 -1.05529 1 -1.83697e-16 3012.99 567.614)"/><path d="M24.2393-10.5843 24.2393-8.65213 8.5025-8.65213C8.67425-7.07419 9.24318-5.89335 10.22-5.10974 11.1915-4.32075 12.5601-3.92893 14.3207-3.92893 15.7376-3.92893 17.1814-4.13289 18.6574-4.55153 20.1441-4.98091 21.6685-5.61426 23.2303-6.46226L23.2303-1.28821C21.6417-0.68707 20.0529-0.236223 18.4641 0.0643596 16.8754 0.37566 15.2866 0.536682 13.6978 0.536682 9.88711 0.536682 6.92429-0.429426 4.80952-2.3617 2.7056-4.29386 1.65351-7.00441 1.65351-10.4986 1.65351-13.9336 2.6894-16.628 4.76651-18.5924 6.83827-20.5676 9.68829-21.5551 13.3113-21.5551 16.6175-21.5551 19.2636-20.5514 21.2549-18.5494 23.2408-16.5582 24.2391-13.9014 24.2391-10.5843ZM17.3262-12.8171C17.3262-14.0891 16.9505-15.1143 16.2098-15.8872 15.4638-16.6708 14.4923-17.068 13.29-17.068 11.9858-17.068 10.9283-16.7031 10.1126-15.9731 9.29682-15.2431 8.78687-14.1911 8.58824-12.8171Z" fill="#FFFFFF" transform="matrix(-1.93854e-16 -1.05529 1 -1.83697e-16 3012.99 543.451)"/><path d="M24.389-12.8171 24.389 0 17.6262 0 17.6262-9.8114C17.6262-11.6255 17.5833-12.8815 17.4974-13.5685 17.4115-14.2556 17.2666-14.7601 17.068-15.0929 16.8104-15.5223 16.4508-15.8551 15.9945-16.102 15.549-16.3435 15.0392-16.4669 14.4702-16.4669 13.064-16.4669 11.9637-15.9195 11.164-14.8353 10.3589-13.7618 9.96172-12.2643 9.96172-10.3482L9.96172-0.000137403 3.24189-0.000137403 3.24189-21.0393 9.96172-21.0393 9.96172-17.9692C10.9761-19.1822 12.0496-20.0839 13.1822-20.6743 14.3254-21.2594 15.5867-21.5546 16.9608-21.5546 19.3921-21.5546 21.2385-20.8031 22.4997-19.3003 23.7557-17.8083 24.389-15.6506 24.389-12.8166Z" fill="#FFFFFF" transform="matrix(-1.93854e-16 -1.05529 1 -1.83697e-16 3012.99 515.912)"/><path d="M17.0682-29.2407 17.0682-24.818 13.3541-24.818C12.4094-24.818 11.7438-24.6463 11.3575-24.3027 10.9817-23.9592 10.7993-23.3581 10.7993-22.4993L10.7993-21.0394 16.553-21.0394 16.553-16.2303 10.7993-16.2303 10.7993-0.000274806 4.07943-0.000274806 4.07943-16.2303 0.730228-16.2303 0.730228-21.0394 4.07943-21.0394 4.07943-22.4993C4.07943-24.7859 4.71277-26.4818 5.99015-27.5875 7.2622-28.6878 9.24276-29.2406 11.9371-29.2406Z" fill="#FFFFFF" transform="matrix(-1.93854e-16 -1.05529 1 -1.83697e-16 3051.46 1169.5)"/><path d="M18.8709-15.3081C18.2698-15.5764 17.674-15.7804 17.0889-15.9092 16.5146-16.0488 15.935-16.1239 15.35-16.1239 13.6164-16.1239 12.2852-15.5657 11.3568-14.4492 10.4229-13.3436 9.96131-11.7656 9.96131-9.70457L9.96131-0.00048091 3.24147-0.00048091 3.24147-21.0396 9.96131-21.0396 9.96131-17.5831C10.8201-18.9571 11.8077-19.9555 12.924-20.5888 14.0511-21.2329 15.3983-21.5549 16.9602-21.5549 17.1856-21.5549 17.4325-21.5388 17.6902-21.512 17.9585-21.4959 18.345-21.4583 18.8495-21.4046Z" fill="#FFFFFF" transform="matrix(-1.93854e-16 -1.05529 1 -1.83697e-16 3051.46 1151.83)"/><path d="M13.2465-16.7467C11.7544-16.7467 10.6164-16.21 9.83283-15.1365 9.04384-14.063 8.65202-12.5173 8.65202-10.4991 8.65202-8.48093 9.04384-6.93514 9.83283-5.86175 10.6165-4.79902 11.7543-4.2731 13.2465-4.2731 14.7064-4.2731 15.8228-4.79909 16.5957-5.86175 17.3793-6.93521 17.7765-8.48093 17.7765-10.4991 17.7765-12.5173 17.3793-14.0631 16.5957-15.1365 15.8228-16.2099 14.7064-16.7467 13.2465-16.7467ZM13.2465-21.5558C16.864-21.5558 19.6926-20.5736 21.7268-18.6145 23.7557-16.6662 24.7755-13.9611 24.7755-10.4992 24.7755-7.04809 23.7558-4.3429 21.7268-2.38394 19.6926-0.435567 16.864 0.535872 13.2465 0.535872 9.60749 0.535872 6.7682-0.435609 4.72323-2.38394 2.6729-4.34303 1.6531-7.04809 1.6531-10.4992 1.6531-13.9611 2.67289-16.6663 4.72323-18.6145 6.7682-20.5736 9.60749-21.5558 13.2465-21.5558Z" fill="#FFFFFF" transform="matrix(-1.93854e-16 -1.05529 1 -1.83697e-16 3051.46 1131.81)"/><path d="M22.7361-17.5409C23.5787-18.8398 24.5879-19.8381 25.7632-20.5251 26.9333-21.2121 28.2215-21.5556 29.6277-21.5556 32.0429-21.5556 33.884-20.8042 35.1452-19.3014 36.4173-17.8094 37.0559-15.6517 37.0559-12.8176L37.0559-0.000549612 30.2931-0.000549612 30.2931-10.9714 30.2931-11.4652C30.3038-11.6476 30.3146-11.9053 30.3146-12.238 30.3146-13.7247 30.0891-14.7983 29.649-15.4585 29.2196-16.1294 28.5165-16.4676 27.5451-16.4676 26.2677-16.4676 25.2802-15.9362 24.5824-14.8789 23.8793-13.8323 23.5197-12.3133 23.509-10.3274L23.509-0.000769457 16.7461-0.000769457 16.7461-10.9716C16.7461-13.301 16.5422-14.7985 16.145-15.4586 15.7424-16.1295 15.0286-16.4677 13.9981-16.4677 12.7099-16.4677 11.7115-15.9363 11.0138-14.879 10.3107-13.8324 9.96182-12.3241 9.96182-10.349L9.96182-0.000879379 3.19898-0.000879379 3.19898-21.04 9.96182-21.04 9.96182-17.9699C10.7884-19.1561 11.7331-20.0524 12.7958-20.6535 13.8692-21.2547 15.05-21.5552 16.3381-21.5552 17.798-21.5552 19.0862-21.201 20.2026-20.5032 21.319-19.8001 22.1617-18.8125 22.736-17.5406Z" fill="#FFFFFF" transform="matrix(-1.93854e-16 -1.05529 1 -1.83697e-16 3051.46 1103.92)"/><path d="M10.5843-27.0079 10.5843-21.0394 17.5189-21.0394 17.5189-16.2303 10.5843-16.2303 10.5843-7.29912C10.5843-6.32227 10.7775-5.66746 11.164-5.32395 11.5504-4.98045 12.3126-4.80869 13.4612-4.80869L16.9177-4.80869 16.9177 0.000412209 11.164 0.000412209C8.50178 0.000412209 6.61249-0.547056 5.49609-1.65268 4.39042-2.76908 3.843-4.64766 3.843-7.29912L3.843-16.2303 0.515234-16.2303 0.515234-21.0394 3.843-21.0394 3.843-27.0079Z" fill="#FFFFFF" transform="matrix(-1.93854e-16 -1.05529 1 -1.83697e-16 3051.46 1047.48)"/><path d="M24.389-12.8171 24.389 0 17.6262 0 17.6262-9.76853C17.6262-11.615 17.5833-12.8815 17.4974-13.5685 17.4115-14.2556 17.2666-14.7601 17.068-15.0929 16.8104-15.5223 16.4508-15.8551 15.9945-16.102 15.549-16.3435 15.0392-16.4669 14.4702-16.4669 13.064-16.4669 11.9637-15.9195 11.164-14.8353 10.3589-13.7618 9.96172-12.2643 9.96172-10.3482L9.96172-0.000137403 3.24189-0.000137403 3.24189-29.2409 9.96172-29.2409 9.96172-17.9696C10.9761-19.1826 12.0496-20.0843 13.1822-20.6748 14.3254-21.2598 15.5867-21.555 16.9608-21.555 19.3921-21.555 21.2385-20.8036 22.4997-19.3008 23.7557-17.8087 24.389-15.6511 24.389-12.817Z" fill="#FFFFFF" transform="matrix(-1.93854e-16 -1.05529 1 -1.83697e-16 3051.46 1028.07)"/><path d="M24.2393-10.5843 24.2393-8.65213 8.5025-8.65213C8.67425-7.07419 9.24318-5.89335 10.22-5.10974 11.1915-4.32075 12.5601-3.92893 14.3207-3.92893 15.7376-3.92893 17.1814-4.13289 18.6574-4.55153 20.1441-4.98091 21.6685-5.61426 23.2303-6.46226L23.2303-1.28821C21.6417-0.68707 20.0529-0.236223 18.4641 0.0643596 16.8754 0.37566 15.2866 0.536682 13.6978 0.536682 9.88711 0.536682 6.92429-0.429426 4.80952-2.3617 2.7056-4.29386 1.65351-7.00441 1.65351-10.4986 1.65351-13.9336 2.6894-16.628 4.76651-18.5924 6.83827-20.5676 9.68829-21.5551 13.3113-21.5551 16.6175-21.5551 19.2636-20.5514 21.2549-18.5494 23.2408-16.5582 24.2391-13.9014 24.2391-10.5843ZM17.3262-12.8171C17.3262-14.0891 16.9505-15.1143 16.2098-15.8872 15.4638-16.6708 14.4923-17.068 13.29-17.068 11.9858-17.068 10.9283-16.7031 10.1126-15.9731 9.29682-15.2431 8.78687-14.1911 8.58824-12.8171Z" fill="#FFFFFF" transform="matrix(-1.93854e-16 -1.05529 1 -1.83697e-16 3051.46 999.17)"/><path d="M3.54239-28.0385 11.6148-28.0385 21.8127-8.80204 21.8127-28.0385 28.6614-28.0385 28.6614 0 20.589 0 10.3911-19.2364 10.3911 0 3.54239 0Z" fill="#FFFFFF" transform="matrix(-1.93854e-16 -1.05529 1 -1.83697e-16 3051.46 957.5)"/><path d="M13.2465-16.7467C11.7544-16.7467 10.6164-16.21 9.83283-15.1365 9.04384-14.063 8.65202-12.5173 8.65202-10.4991 8.65202-8.48093 9.04384-6.93514 9.83283-5.86175 10.6165-4.79902 11.7543-4.2731 13.2465-4.2731 14.7064-4.2731 15.8228-4.79909 16.5957-5.86175 17.3793-6.93521 17.7765-8.48093 17.7765-10.4991 17.7765-12.5173 17.3793-14.0631 16.5957-15.1365 15.8228-16.2099 14.7064-16.7467 13.2465-16.7467ZM13.2465-21.5558C16.864-21.5558 19.6926-20.5736 21.7268-18.6145 23.7557-16.6662 24.7755-13.9611 24.7755-10.4992 24.7755-7.04809 23.7558-4.3429 21.7268-2.38394 19.6926-0.435567 16.864 0.535872 13.2465 0.535872 9.60749 0.535872 6.7682-0.435609 4.72323-2.38394 2.6729-4.34303 1.6531-7.04809 1.6531-10.4992 1.6531-13.9611 2.67289-16.6663 4.72323-18.6145 6.7682-20.5736 9.60749-21.5558 13.2465-21.5558Z" fill="#FFFFFF" transform="matrix(-1.93854e-16 -1.05529 1 -1.83697e-16 3051.46 923.521)"/><path d="M3.00569-8.20131 3.00569-21.04 9.76853-21.04 9.76853-18.9361C9.76853-17.7875 9.75779-16.3598 9.74706-14.6422 9.73096-12.9247 9.72559-11.7761 9.72559-11.2071 9.72559-9.50032 9.76853-8.27661 9.85441-7.53587 9.95102-6.78981 10.1013-6.25309 10.3053-5.92564 10.5897-5.48015 10.9547-5.13665 11.4002-4.89512 11.8403-4.66432 12.3502-4.55161 12.9245-4.55161 14.3254-4.55161 15.4257-5.08834 16.2307-6.16184 17.0305-7.2353 17.433-8.72743 17.433-10.6489L17.433-21.04 24.1528-21.04 24.1528-0.000824418 17.433-0.000824418 17.433-3.04952C16.4132-1.81504 15.3398-0.907959 14.2126-0.322897 13.0801 0.246034 11.8294 0.535872 10.4554 0.535872 8.03478 0.535872 6.18836-0.204813 4.91642-1.69693 3.63899-3.18363 3.00569-5.35212 3.00569-8.20213Z" fill="#FFFFFF" transform="matrix(-1.93854e-16 -1.05529 1 -1.83697e-16 3051.46 895.625)"/><path d="M24.389-12.8171 24.389 0 17.6262 0 17.6262-9.8114C17.6262-11.6255 17.5833-12.8815 17.4974-13.5685 17.4115-14.2556 17.2666-14.7601 17.068-15.0929 16.8104-15.5223 16.4508-15.8551 15.9945-16.102 15.549-16.3435 15.0392-16.4669 14.4702-16.4669 13.064-16.4669 11.9637-15.9195 11.164-14.8353 10.3589-13.7618 9.96172-12.2643 9.96172-10.3482L9.96172-0.000137403 3.24189-0.000137403 3.24189-21.0393 9.96172-21.0393 9.96172-17.9692C10.9761-19.1822 12.0496-20.0839 13.1822-20.6743 14.3254-21.2594 15.5867-21.5546 16.9608-21.5546 19.3921-21.5546 21.2385-20.8031 22.4997-19.3003 23.7557-17.8083 24.389-15.6506 24.389-12.8166Z" fill="#FFFFFF" transform="matrix(-1.93854e-16 -1.05529 1 -1.83697e-16 3051.46 866.722)"/><path d="M3.54239-28.0385 15.5437-28.0385C19.1077-28.0385 21.8395-27.2441 23.745-25.6553 25.6611-24.0774 26.622-21.823 26.622-18.8925 26.622-15.9566 25.6612-13.697 23.745-12.1082 21.8397-10.5196 19.1077-9.72511 15.5437-9.72511L10.756-9.72511 10.756 0.000412209 3.54239 0.000412209ZM10.756-22.8 10.756-14.9637 14.7708-14.9637C16.1716-14.9637 17.2505-15.3072 18.0127-15.9943 18.7856-16.6813 19.172-17.6474 19.172-18.8926 19.172-20.1486 18.7856-21.1147 18.0127-21.791 17.2505-22.4619 16.1718-22.8001 14.7708-22.8001Z" fill="#FFFFFF" transform="matrix(-1.93854e-16 -1.05529 1 -1.83697e-16 3051.46 823.686)"/><path d="M18.8709-15.3081C18.2698-15.5764 17.674-15.7804 17.0889-15.9092 16.5146-16.0488 15.935-16.1239 15.35-16.1239 13.6164-16.1239 12.2852-15.5657 11.3568-14.4492 10.4229-13.3436 9.96131-11.7656 9.96131-9.70457L9.96131-0.00048091 3.24147-0.00048091 3.24147-21.0396 9.96131-21.0396 9.96131-17.5831C10.8201-18.9571 11.8077-19.9555 12.924-20.5888 14.0511-21.2329 15.3983-21.5549 16.9602-21.5549 17.1856-21.5549 17.4325-21.5388 17.6902-21.512 17.9585-21.4959 18.345-21.4583 18.8495-21.4046Z" fill="#FFFFFF" transform="matrix(-1.93854e-16 -1.05529 1 -1.83697e-16 3051.46 793.927)"/><path d="M13.2465-16.7467C11.7544-16.7467 10.6164-16.21 9.83283-15.1365 9.04384-14.063 8.65202-12.5173 8.65202-10.4991 8.65202-8.48093 9.04384-6.93514 9.83283-5.86175 10.6165-4.79902 11.7543-4.2731 13.2465-4.2731 14.7064-4.2731 15.8228-4.79909 16.5957-5.86175 17.3793-6.93521 17.7765-8.48093 17.7765-10.4991 17.7765-12.5173 17.3793-14.0631 16.5957-15.1365 15.8228-16.2099 14.7064-16.7467 13.2465-16.7467ZM13.2465-21.5558C16.864-21.5558 19.6926-20.5736 21.7268-18.6145 23.7557-16.6662 24.7755-13.9611 24.7755-10.4992 24.7755-7.04809 23.7558-4.3429 21.7268-2.38394 19.6926-0.435567 16.864 0.535872 13.2465 0.535872 9.60749 0.535872 6.7682-0.435609 4.72323-2.38394 2.6729-4.34303 1.6531-7.04809 1.6531-10.4992 1.6531-13.9611 2.67289-16.6663 4.72323-18.6145 6.7682-20.5736 9.60749-21.5558 13.2465-21.5558Z" fill="#FFFFFF" transform="matrix(-1.93854e-16 -1.05529 1 -1.83697e-16 3051.46 773.91)"/><path d="M3.24189-21.0391 9.96172-21.0391 9.96172-0.386102C9.96172 2.43176 9.28008 4.58404 7.92211 6.0761 6.57491 7.5628 4.61592 8.3089 2.03961 8.3089L-1.28815 8.3089-1.28815 3.88617-0.107339 3.88617C1.16471 3.88617 2.03958 3.59633 2.51184 3.0274 2.99489 2.4531 3.24179 1.31522 3.24179-0.38624ZM3.24189-29.2405 9.96172-29.2405 9.96172-23.7443 3.24189-23.7443Z" fill="#FFFFFF" transform="matrix(-1.93854e-16 -1.05529 1 -1.83697e-16 3051.46 746.015)"/><path d="M24.2393-10.5843 24.2393-8.65213 8.5025-8.65213C8.67425-7.07419 9.24318-5.89335 10.22-5.10974 11.1915-4.32075 12.5601-3.92893 14.3207-3.92893 15.7376-3.92893 17.1814-4.13289 18.6574-4.55153 20.1441-4.98091 21.6685-5.61426 23.2303-6.46226L23.2303-1.28821C21.6417-0.68707 20.0529-0.236223 18.4641 0.0643596 16.8754 0.37566 15.2866 0.536682 13.6978 0.536682 9.88711 0.536682 6.92429-0.429426 4.80952-2.3617 2.7056-4.29386 1.65351-7.00441 1.65351-10.4986 1.65351-13.9336 2.6894-16.628 4.76651-18.5924 6.83827-20.5676 9.68829-21.5551 13.3113-21.5551 16.6175-21.5551 19.2636-20.5514 21.2549-18.5494 23.2408-16.5582 24.2391-13.9014 24.2391-10.5843ZM17.3262-12.8171C17.3262-14.0891 16.9505-15.1143 16.2098-15.8872 15.4638-16.6708 14.4923-17.068 13.29-17.068 11.9858-17.068 10.9283-16.7031 10.1126-15.9731 9.29682-15.2431 8.78687-14.1911 8.58824-12.8171Z" fill="#FFFFFF" transform="matrix(-1.93854e-16 -1.05529 1 -1.83697e-16 3051.46 732.098)"/><path d="M20.2243-20.3741 20.2243-14.8994C19.3226-15.5274 18.4049-15.9944 17.4763-16.2949 16.5585-16.5955 15.6084-16.7457 14.6209-16.7457 12.7423-16.7457 11.2771-16.1929 10.2198-15.0926 9.17313-14.0031 8.65254-12.4735 8.65254-10.4982 8.65254-8.53372 9.17317-7.00401 10.2198-5.90368 11.2771-4.81412 12.7423-4.27202 14.6209-4.27202 15.6622-4.27202 16.6605-4.42232 17.6052-4.72287 18.5498-5.03417 19.4193-5.50114 20.2243-6.11834L20.2243-0.622216C19.1777-0.23577 18.1096 0.0486956 17.0255 0.236553 15.952 0.435142 14.8625 0.537122 13.7621 0.537122 9.96749 0.537122 6.99931-0.434358 4.85239-2.38269 2.71618-4.32571 1.65351-7.03076 1.65351-10.498 1.65351-13.9759 2.71624-16.6865 4.85239-18.6349 6.99931-20.5779 9.96749-21.5547 13.7621-21.5547 14.8624-21.5547 15.9521-21.4527 17.0255-21.2541 18.0989-21.0662 19.1617-20.771 20.2243-20.3739Z" fill="#FFFFFF" transform="matrix(-1.93854e-16 -1.05529 1 -1.83697e-16 3051.46 704.56)"/><path d="M10.5843-27.0079 10.5843-21.0394 17.5189-21.0394 17.5189-16.2303 10.5843-16.2303 10.5843-7.29912C10.5843-6.32227 10.7775-5.66746 11.164-5.32395 11.5504-4.98045 12.3126-4.80869 13.4612-4.80869L16.9177-4.80869 16.9177 0.000412209 11.164 0.000412209C8.50178 0.000412209 6.61249-0.547056 5.49609-1.65268 4.39042-2.76908 3.843-4.64766 3.843-7.29912L3.843-16.2303 0.515234-16.2303 0.515234-21.0394 3.843-21.0394 3.843-27.0079Z" fill="#FFFFFF" transform="matrix(-1.93854e-16 -1.05529 1 -1.83697e-16 3051.46 680.499)"/></g></g><g clip-path="url(#clip3)"><g clip-path="url(#clip4)"><g clip-path="url(#clip5)"><path d="M231.488 45.5417C216.898 45.5417 205.028 57.4118 205.028 72.0036 205.028 86.5935 216.898 98.4636 231.488 98.4636 246.078 98.4636 257.95 86.5935 257.95 72.0036 257.95 57.4137 246.078 45.5417 231.488 45.5417ZM231.488 92.318C220.285 92.318 211.173 83.204 211.173 72.0031 211.173 60.8004 220.287 51.6863 231.488 51.6863 242.692 51.6863 251.805 60.8004 251.805 72.0031 251.805 83.2059 242.692 92.318 231.488 92.318Z" stroke="#FFFFFF" stroke-width="10.4043" fill="#FFFFFF" transform="matrix(1 0 0 1.0014 2149 631)"/><path d="M261.159 9.96721 63.7469 9.96721C52.4478 9.96721 43.2555 19.1595 43.2555 30.4586L43.2555 227.875C43.2555 239.174 52.4478 248.366 63.7469 248.366L261.159 248.366C272.458 248.366 281.65 239.174 281.65 227.875L281.65 30.4586C281.65 19.1595 272.458 9.96721 261.159 9.96721ZM275.505 227.87C275.505 235.78 269.07 242.216 261.159 242.216L63.7469 242.216C55.8373 242.216 49.4006 235.78 49.4006 227.87L49.4006 184.366 124.823 111.854 164.441 149.67 192.211 120.694 275.509 184.576ZM275.505 176.837 191.583 112.476 164.248 140.999 124.806 103.35 49.3978 175.848 49.3978 30.4568C49.3978 22.5471 55.834 16.1104 63.7441 16.1104L261.156 16.1104C269.067 16.1104 275.502 22.5466 275.502 30.4568Z" stroke="#FFFFFF" stroke-width="10.4043" fill="#FFFFFF" transform="matrix(1 0 0 1.0014 2149 631)"/><path d="M8.73959-0.523928C8.28845-0.291071 7.81724-0.116429 7.32792 0 6.84218 0.120066 6.33283 0.181917 5.79982 0.181917 4.21713 0.181917 2.96371-0.258327 2.03773-1.14248 1.10994-2.03022 0.647855-3.23093 0.647855-4.74451 0.647855-6.26171 1.10993-7.46237 2.03773-8.34653 2.96371-9.23427 4.21713-9.67819 5.79982-9.67819 6.33283-9.67819 6.84223-9.61634 7.32792-9.49628 7.81729-9.37986 8.28845-9.20521 8.73959-8.97235L8.73959-7.0076C8.28296-7.3132 7.83364-7.53879 7.3934-7.68433 6.95134-7.82986 6.48563-7.90261 5.99625-7.90261 5.12304-7.90261 4.43537-7.62062 3.93691-7.0585 3.43664-6.50002 3.18739-5.72866 3.18739-4.74446 3.18739-3.76391 3.43663-2.99259 3.93691-2.43043 4.43537-1.87194 5.12304-1.59359 5.99625-1.59359 6.48563-1.59359 6.95134-1.66272 7.3934-1.80461 7.83364-1.95015 8.283-2.17754 8.73959-2.48865Z" stroke="#FFFFFF" stroke-width="10.4043" fill="#FFFFFF" transform="matrix(1 0 0 1.0014 2181.6 931.34)"/><path d="M6.39612-5.18852C6.19237-5.27947 5.99043-5.34859 5.79213-5.39227 5.59746-5.43959 5.40103-5.46502 5.20272-5.46502 4.61513-5.46502 4.16395-5.27584 3.84927-4.89745 3.53273-4.52267 3.37629-3.98784 3.37629-3.28927L3.37629-0.000163 1.09867-0.000163 1.09867-7.1312 3.37629-7.1312 3.37629-5.95965C3.66736-6.42536 4.00211-6.76371 4.38046-6.9784 4.76249-7.19668 5.21912-7.30584 5.7485-7.30584 5.82492-7.30584 5.90861-7.30039 5.99593-7.29127 6.08688-7.28582 6.21784-7.2731 6.38885-7.25489Z" stroke="#FFFFFF" stroke-width="10.4043" fill="#FFFFFF" transform="matrix(1 0 0 1.0014 2191.17 931.34)"/><path d="M8.21566-3.58744 8.21566-2.93255 2.88184-2.93255C2.94005-2.39773 3.13289-1.99749 3.46398-1.7319 3.79326-1.46448 4.25714-1.33167 4.85386-1.33167 5.3341-1.33167 5.82348-1.4008 6.32375-1.5427 6.82765-1.68823 7.34431-1.9029 7.87369-2.19032L7.87369-0.436626C7.33523-0.232876 6.79672-0.0800656 6.25822 0.021814 5.71976 0.127326 5.18126 0.181903 4.64275 0.181903 3.35114 0.181903 2.34692-0.14555 1.63014-0.800474 0.917038-1.45536 0.56044-2.37408 0.56044-3.55839 0.56044-4.72267 0.911547-5.63589 1.61556-6.30172 2.31777-6.97118 3.28375-7.30589 4.51175-7.30589 5.63235-7.30589 6.52922-6.96569 7.20413-6.28714 7.87723-5.61223 8.21562-4.71172 8.21562-3.58745ZM5.87256-4.34423C5.87256-4.77539 5.74524-5.12286 5.49417-5.38482 5.24129-5.65042 4.91203-5.78505 4.50453-5.78505 4.06246-5.78505 3.70406-5.66136 3.42756-5.41393 3.15107-5.16649 2.97822-4.80994 2.9109-4.34423Z" stroke="#FFFFFF" stroke-width="10.4043" fill="#FFFFFF" transform="matrix(1 0 0 1.0014 2197.6 931.34)"/><path d="M4.29332-3.20905C3.81671-3.20905 3.4583-3.129 3.21636-2.96892 2.97805-2.80883 2.8598-2.57051 2.8598-2.25582 2.8598-1.96475 2.95622-1.73552 3.15087-1.57178 3.34371-1.41169 3.61113-1.33164 3.95134-1.33164 4.38249-1.33164 4.74451-1.48445 5.03558-1.79008 5.33028-2.09935 5.47945-2.48502 5.47945-2.9471L5.47945-3.20907ZM7.77165-4.06773 7.77165 0 5.47945 0 5.47945-1.05512C5.17385-0.622152 4.8282-0.307418 4.44613-0.109163 4.06227 0.0836702 3.59657 0.181908 3.04898 0.181908 2.31041 0.181908 1.71187-0.0309374 1.25161-0.458449 0.78953-0.889598 0.560301-1.44991 0.560301-2.1394 0.560301-2.97261 0.845914-3.58386 1.41898-3.97315 1.99568-4.36609 2.89982-4.56255 4.13321-4.56255L5.47941-4.56255 5.47941-4.74446C5.47941-5.10288 5.33569-5.36479 5.05006-5.53035 4.76263-5.69955 4.31876-5.78505 3.71841-5.78505 3.22722-5.78505 2.77245-5.73592 2.35038-5.63952 1.93196-5.5413 1.54446-5.39576 1.18609-5.20291L1.18609-6.94207C1.67001-7.0585 2.15752-7.14764 2.64871-7.2113 3.14353-7.27315 3.63835-7.30589 4.13318-7.30589 5.41751-7.30589 6.34531-7.05124 6.91292-6.54184 7.48416-6.03612 7.7716-5.21199 7.7716-4.06775Z" stroke="#FFFFFF" stroke-width="10.4043" fill="#FFFFFF" transform="matrix(1 0 0 1.0014 2206.45 931.34)"/><path d="M3.58744-9.15408 3.58744-7.13111 5.93785-7.13111 5.93785-5.50111 3.58744-5.50111 3.58744-2.47397C3.58744-2.14287 3.65293-1.92093 3.78392-1.8045 3.9149-1.68807 4.17323-1.62986 4.56254-1.62986L5.7341-1.62986 5.7341 0.000139714 3.78392 0.000139714C2.8816 0.000139714 2.24124-0.185419 1.86285-0.560161 1.48809-0.938554 1.30255-1.57528 1.30255-2.47397L1.30255-5.50111 0.174633-5.50111 0.174633-7.13111 1.30255-7.13111 1.30255-9.15408Z" stroke="#FFFFFF" stroke-width="10.4043" fill="#FFFFFF" transform="matrix(1 0 0 1.0014 2215.24 931.34)"/><path d="M8.21566-3.58744 8.21566-2.93255 2.88184-2.93255C2.94005-2.39773 3.13289-1.99749 3.46398-1.7319 3.79326-1.46448 4.25714-1.33167 4.85386-1.33167 5.3341-1.33167 5.82348-1.4008 6.32375-1.5427 6.82765-1.68823 7.34431-1.9029 7.87369-2.19032L7.87369-0.436626C7.33523-0.232876 6.79672-0.0800656 6.25822 0.021814 5.71976 0.127326 5.18126 0.181903 4.64275 0.181903 3.35114 0.181903 2.34692-0.14555 1.63014-0.800474 0.917038-1.45536 0.56044-2.37408 0.56044-3.55839 0.56044-4.72267 0.911547-5.63589 1.61556-6.30172 2.31777-6.97118 3.28375-7.30589 4.51175-7.30589 5.63235-7.30589 6.52922-6.96569 7.20413-6.28714 7.87723-5.61223 8.21562-4.71172 8.21562-3.58745ZM5.87256-4.34423C5.87256-4.77539 5.74524-5.12286 5.49417-5.38482 5.24129-5.65042 4.91203-5.78505 4.50453-5.78505 4.06246-5.78505 3.70406-5.66136 3.42756-5.41393 3.15107-5.16649 2.97822-4.80994 2.9109-4.34423Z" stroke="#FFFFFF" stroke-width="10.4043" fill="#FFFFFF" transform="matrix(1 0 0 1.0014 2221.48 931.34)"/><path d="M5.94531-6.09061 5.94531-9.91091 8.2375-9.91091 8.2375-4.65714e-05 5.94531-4.65714e-05 5.94531-1.03337C5.63421-0.61132 5.29042-0.302062 4.91198-0.10921 4.53354 0.0836423 4.09335 0.181861 3.59489 0.181861 2.71623 0.181861 1.99582-0.167424 1.4337-0.865995 0.869768-1.56457 0.589594-2.46144 0.589594-3.55838 0.589594-4.659 0.869749-5.55951 1.4337-6.25808 1.99582-6.95665 2.71623-7.30594 3.59489-7.30594 4.08972-7.30594 4.52632-7.2059 4.90471-7.0076 5.28674-6.80748 5.63421-6.50188 5.94531-6.0907ZM4.44627-1.46984C4.93019-1.46984 5.30127-1.6463 5.5596-2.00103 5.81612-2.35941 5.94526-2.87788 5.94526-3.55829 5.94526-4.23683 5.81612-4.7535 5.5596-5.10823 5.30127-5.4666 4.93014-5.64669 4.44627-5.64669 3.96053-5.64669 3.58944-5.4666 3.33293-5.10823 3.0746-4.7535 2.94726-4.23683 2.94726-3.55829 2.94726-2.87793 3.07461-2.35945 3.33293-2.00103 3.58944-1.64629 3.96057-1.46984 4.44627-1.46984Z" stroke="#FFFFFF" stroke-width="10.4043" fill="#FFFFFF" transform="matrix(1 0 0 1.0014 2230.32 931.34)"/><path d="M4.89-1.46989C5.37937-1.46989 5.75231-1.64635 6.0106-2.00108 6.26711-2.35946 6.39626-2.87793 6.39626-3.55834 6.39626-4.23688 6.26711-4.75354 6.0106-5.10828 5.75227-5.46665 5.37932-5.64674 4.89-5.64674 4.39881-5.64674 4.02405-5.46665 3.76209-5.10828 3.50376-4.7481 3.37642-4.23143 3.37642-3.55834 3.37642-2.88342 3.50376-2.36676 3.76209-2.00839 4.02405-1.64819 4.39881-1.46993 4.89-1.46993ZM3.37643-6.09066C3.69115-6.50179 4.03863-6.80744 4.41702-7.00755 4.79904-7.20585 5.23928-7.30589 5.7341-7.30589 6.6164-7.30589 7.33863-6.9566 7.90256-6.25803 8.46468-5.55946 8.74667-4.65896 8.74667-3.55834 8.74667-2.46135 8.46468-1.56453 7.90256-0.865958 7.33863-0.167387 6.6164 0.181899 5.7341 0.181899 5.23928 0.181899 4.79904 0.0836609 4.41702-0.109173 4.03863-0.307464 3.69116-0.614892 3.37643-1.03334L3.37643-9.31428e-06 1.09881-9.31428e-06 1.09881-9.91086 3.37643-9.91086Z" stroke="#FFFFFF" stroke-width="10.4043" fill="#FFFFFF" transform="matrix(1 0 0 1.0014 2244.2 931.34)"/><path d="M0.160089-7.13101 2.43771-7.13101 4.35878-2.29178 5.9888-7.13101 8.26643-7.13101 5.26839 0.677148C4.96637 1.46667 4.6153 2.01971 4.21325 2.33625 3.80938 2.65643 3.28182 2.8165 2.62693 2.8165L1.30253 2.8165 1.30253 1.31746 2.01563 1.31746C2.40312 1.31746 2.6851 1.25379 2.85974 1.12826 3.03802 1.00638 3.17628 0.788072 3.27451 0.473375L3.34 0.2769Z" stroke="#FFFFFF" stroke-width="10.4043" fill="#FFFFFF" transform="matrix(1 0 0 1.0014 2253.53 931.34)"/><path d="M5.00643-5.82888C5.38845-5.82888 5.67952-5.91257 5.87964-6.08358 6.08339-6.25277 6.18529-6.50197 6.18529-6.8331 6.18529-7.15691 6.08339-7.40434 5.87964-7.57535 5.67952-7.74999 5.38845-7.83732 5.00643-7.83732L3.64566-7.83732 3.64566-5.82892ZM5.08648-1.66656C5.5813-1.66656 5.95243-1.77025 6.19982-1.97946 6.44721-2.18685 6.57095-2.50339 6.57095-2.92542 6.57095-3.33656 6.44721-3.64583 6.19982-3.84958 5.95602-4.05333 5.58494-4.15521 5.08648-4.15521L3.64565-4.15521 3.64565-1.66653ZM7.3641-5.08667C7.89166-4.93568 8.29916-4.6537 8.5866-4.24256 8.87768-3.8296 9.02321-3.32566 9.02321-2.72899 9.02321-1.81209 8.71211-1.1281 8.09178-0.676962 7.46964-0.225801 6.52908-0.000232857 5.26839-0.000232857L1.20065-0.000232857 1.20065-9.50359 4.87542-9.50359C6.19432-9.50359 7.14941-9.30348 7.74245-8.90692 8.33912-8.5085 8.63751-7.86996 8.63751-6.99312 8.63751-6.5274 8.52834-6.1308 8.31006-5.80699 8.09174-5.48681 7.77524-5.24669 7.3641-5.08658Z" stroke="#FFFFFF" stroke-width="10.4043" fill="#FFFFFF" transform="matrix(1 0 0 1.0014 2266.57 931.34)"/><path d="M6.39612-5.18852C6.19237-5.27947 5.99043-5.34859 5.79213-5.39227 5.59746-5.43959 5.40103-5.46502 5.20272-5.46502 4.61513-5.46502 4.16395-5.27584 3.84927-4.89745 3.53273-4.52267 3.37629-3.98784 3.37629-3.28927L3.37629-0.000163 1.09867-0.000163 1.09867-7.1312 3.37629-7.1312 3.37629-5.95965C3.66736-6.42536 4.00211-6.76371 4.38046-6.9784 4.76249-7.19668 5.21912-7.30584 5.7485-7.30584 5.82492-7.30584 5.90861-7.30039 5.99593-7.29127 6.08688-7.28582 6.21784-7.2731 6.38885-7.25489Z" stroke="#FFFFFF" stroke-width="10.4043" fill="#FFFFFF" transform="matrix(1 0 0 1.0014 2276.51 931.34)"/><path d="M4.29332-3.20905C3.81671-3.20905 3.4583-3.129 3.21636-2.96892 2.97805-2.80883 2.8598-2.57051 2.8598-2.25582 2.8598-1.96475 2.95622-1.73552 3.15087-1.57178 3.34371-1.41169 3.61113-1.33164 3.95134-1.33164 4.38249-1.33164 4.74451-1.48445 5.03558-1.79008 5.33028-2.09935 5.47945-2.48502 5.47945-2.9471L5.47945-3.20907ZM7.77165-4.06773 7.77165 0 5.47945 0 5.47945-1.05512C5.17385-0.622152 4.8282-0.307418 4.44613-0.109163 4.06227 0.0836702 3.59657 0.181908 3.04898 0.181908 2.31041 0.181908 1.71187-0.0309374 1.25161-0.458449 0.78953-0.889598 0.560301-1.44991 0.560301-2.1394 0.560301-2.97261 0.845914-3.58386 1.41898-3.97315 1.99568-4.36609 2.89982-4.56255 4.13321-4.56255L5.47941-4.56255 5.47941-4.74446C5.47941-5.10288 5.33569-5.36479 5.05006-5.53035 4.76263-5.69955 4.31876-5.78505 3.71841-5.78505 3.22722-5.78505 2.77245-5.73592 2.35038-5.63952 1.93196-5.5413 1.54446-5.39576 1.18609-5.20291L1.18609-6.94207C1.67001-7.0585 2.15752-7.14764 2.64871-7.2113 3.14353-7.27315 3.63835-7.30589 4.13318-7.30589 5.41751-7.30589 6.34531-7.05124 6.91292-6.54184 7.48416-6.03612 7.7716-5.21199 7.7716-4.06775Z" stroke="#FFFFFF" stroke-width="10.4043" fill="#FFFFFF" transform="matrix(1 0 0 1.0014 2282.94 931.34)"/><path d="M5.94531-6.09061 5.94531-9.91091 8.2375-9.91091 8.2375-4.65714e-05 5.94531-4.65714e-05 5.94531-1.03337C5.63421-0.61132 5.29042-0.302062 4.91198-0.10921 4.53354 0.0836423 4.09335 0.181861 3.59489 0.181861 2.71623 0.181861 1.99582-0.167424 1.4337-0.865995 0.869768-1.56457 0.589594-2.46144 0.589594-3.55838 0.589594-4.659 0.869749-5.55951 1.4337-6.25808 1.99582-6.95665 2.71623-7.30594 3.59489-7.30594 4.08972-7.30594 4.52632-7.2059 4.90471-7.0076 5.28674-6.80748 5.63421-6.50188 5.94531-6.0907ZM4.44627-1.46984C4.93019-1.46984 5.30127-1.6463 5.5596-2.00103 5.81612-2.35941 5.94526-2.87788 5.94526-3.55829 5.94526-4.23683 5.81612-4.7535 5.5596-5.10823 5.30127-5.4666 4.93014-5.64669 4.44627-5.64669 3.96053-5.64669 3.58944-5.4666 3.33293-5.10823 3.0746-4.7535 2.94726-4.23683 2.94726-3.55829 2.94726-2.87793 3.07461-2.35945 3.33293-2.00103 3.58944-1.64629 3.96057-1.46984 4.44627-1.46984Z" stroke="#FFFFFF" stroke-width="10.4043" fill="#FFFFFF" transform="matrix(1 0 0 1.0014 2291.74 931.34)"/><path d="M6.96382-1.7319 3.13621-1.7319 2.52496 0 0.0654328 0 3.5874-9.50336 6.50537-9.50336 10.0273 0 7.56781 0ZM3.74751-3.49286 6.34531-3.49286 5.05006-7.27678Z" stroke="#FFFFFF" stroke-width="10.4043" fill="#FFFFFF" transform="matrix(1 0 0 1.0014 2305.61 931.34)"/><path d="M0.196475-7.13101 2.4741-7.13101 4.2569-2.20469 6.02518-7.13101 8.31006-7.13101 5.50125 0 2.99803 0Z" stroke="#FFFFFF" stroke-width="10.4043" fill="#FFFFFF" transform="matrix(1 0 0 1.0014 2315.71 931.34)"/><path d="M1.09881-7.13101 3.37643-7.13101 3.37643 0 1.09881 0ZM1.09881-9.91077 3.37643-9.91077 3.37643-8.04791 1.09881-8.04791Z" stroke="#FFFFFF" stroke-width="10.4043" fill="#FFFFFF" transform="matrix(1 0 0 1.0014 2324.21 931.34)"/><path d="M6.6653-6.90561 6.6653-5.17371C6.17956-5.37746 5.7084-5.53026 5.25363-5.63216 4.79699-5.73401 4.3677-5.78496 3.96565-5.78496 3.53268-5.78496 3.21068-5.73038 2.99785-5.62485 2.78864-5.51755 2.68494-5.35017 2.68494-5.12281 2.68494-4.94267 2.76499-4.80445 2.92508-4.708 3.08517-4.60977 3.37078-4.53701 3.78376-4.48971L4.18398-4.43149C5.35189-4.2805 6.13779-4.03491 6.54165-3.69655 6.9437-3.35636 7.14564-2.82515 7.14564-2.10292 7.14564-1.34069 6.86369-0.767627 6.30153-0.385602 5.74305-0.00720925 4.90802 0.18201 3.79833 0.18201 3.32172 0.18201 2.83234 0.145626 2.32844 0.0728563 1.82817 8.84857e-05 1.31332-0.110882 0.785762-0.261876L0.785762-1.99377C1.23692-1.77001 1.69898-1.60265 2.17564-1.49169 2.65588-1.38435 3.14344-1.3316 3.63826-1.3316 4.08396-1.3316 4.4187-1.39163 4.64243-1.51351 4.86438-1.63904 4.97718-1.82278 4.97718-2.06655 4.97718-2.2703 4.89894-2.41947 4.74432-2.51771 4.58786-2.61959 4.28042-2.69599 3.82015-2.75057L3.41992-2.80151C2.4048-2.92703 1.69533-3.16171 1.28783-3.50734 0.880335-3.85117 0.676585-4.37329 0.676585-5.07186 0.676585-5.82864 0.933091-6.38895 1.4479-6.75281 1.96638-7.1203 2.76135-7.30584 3.83469-7.30584 4.25128-7.30584 4.68969-7.27129 5.15178-7.20399 5.61749-7.14028 6.12139-7.04025 6.66535-6.90561Z" stroke="#FFFFFF" stroke-width="10.4043" fill="#FFFFFF" transform="matrix(1 0 0 1.0014 2328.68 931.34)"/><path d="M4.48976-5.67612C3.98404-5.67612 3.59834-5.49422 3.33274-5.13035 3.06532-4.76649 2.93252-4.24261 2.93252-3.55857 2.93252-2.87453 3.06532-2.3506 3.33274-1.98678 3.59834-1.62658 3.984-1.44832 4.48976-1.44832 4.98458-1.44832 5.36298-1.6266 5.62494-1.98678 5.89054-2.35062 6.02518-2.87453 6.02518-3.55857 6.02518-4.24261 5.89054-4.76654 5.62494-5.13035 5.36298-5.49417 4.98458-5.67612 4.48976-5.67612ZM4.48976-7.30612C5.7159-7.30612 6.67461-6.97323 7.3641-6.30922 8.05178-5.64883 8.39743-4.73198 8.39743-3.55861 8.39743-2.38888 8.05178-1.47198 7.3641-0.808014 6.67461-0.147631 5.7159 0.181628 4.48976 0.181628 3.25637 0.181628 2.29401-0.147645 1.60089-0.808014 0.905954-1.47203 0.560301-2.38888 0.560301-3.55861 0.560301-4.73198 0.905949-5.64888 1.60089-6.30922 2.29401-6.97323 3.25637-7.30612 4.48976-7.30612Z" stroke="#FFFFFF" stroke-width="10.4043" fill="#FFFFFF" transform="matrix(1 0 0 1.0014 2336.44 931.34)"/><path d="M8.26643-4.34423 8.26643 0 5.97423 0 5.97423-3.32548C5.97423-3.94036 5.9597-4.36607 5.93059-4.59893 5.90148-4.83178 5.85235-5.00279 5.78505-5.11559 5.69773-5.26113 5.57581-5.37392 5.42119-5.45761 5.27021-5.53948 5.09738-5.5813 4.90453-5.5813 4.42792-5.5813 4.05497-5.39576 3.78393-5.02827 3.51105-4.66441 3.37643-4.15687 3.37643-3.50743L3.37643-4.65714e-05 1.09881-4.65714e-05 1.09881-7.13106 3.37643-7.13106 3.37643-6.09047C3.72025-6.5016 4.08408-6.80725 4.46797-7.00737 4.85544-7.20567 5.28297-7.3057 5.74868-7.3057 6.57276-7.3057 7.19859-7.051 7.62607-6.54165 8.05178-6.03593 8.26643-5.30462 8.26643-4.34405Z" stroke="#FFFFFF" stroke-width="10.4043" fill="#FFFFFF" transform="matrix(1 0 0 1.0014 2345.4 931.34)"/><path d="M5.7851-9.91086 5.7851-8.41182 4.52623-8.41182C4.20605-8.41182 3.98046-8.35361 3.8495-8.23718 3.72215-8.12075 3.6603-7.917 3.6603-7.62593L3.6603-7.13111 5.6105-7.13111 5.6105-5.50111 3.6603-5.50111 3.6603-9.31428e-05 1.38268-9.31428e-05 1.38268-5.50111 0.247504-5.50111 0.247504-7.13111 1.38268-7.13111 1.38268-7.62593C1.38268-8.40092 1.59735-8.97575 2.0303-9.35051 2.46145-9.72346 3.13274-9.91081 4.04596-9.91081Z" stroke="#FFFFFF" stroke-width="10.4043" fill="#FFFFFF" transform="matrix(1 0 0 1.0014 2181.6 944.398)"/><path d="M6.39612-5.18852C6.19237-5.27947 5.99043-5.34859 5.79213-5.39227 5.59746-5.43959 5.40103-5.46502 5.20272-5.46502 4.61513-5.46502 4.16395-5.27584 3.84927-4.89745 3.53273-4.52267 3.37629-3.98784 3.37629-3.28927L3.37629-0.000163 1.09867-0.000163 1.09867-7.1312 3.37629-7.1312 3.37629-5.95965C3.66736-6.42536 4.00211-6.76371 4.38046-6.9784 4.76249-7.19668 5.21912-7.30584 5.7485-7.30584 5.82492-7.30584 5.90861-7.30039 5.99593-7.29127 6.08688-7.28582 6.21784-7.2731 6.38885-7.25489Z" stroke="#FFFFFF" stroke-width="10.4043" fill="#FFFFFF" transform="matrix(1 0 0 1.0014 2187.27 944.398)"/><path d="M4.48976-5.67612C3.98404-5.67612 3.59834-5.49422 3.33274-5.13035 3.06532-4.76649 2.93252-4.24261 2.93252-3.55857 2.93252-2.87453 3.06532-2.3506 3.33274-1.98678 3.59834-1.62658 3.984-1.44832 4.48976-1.44832 4.98458-1.44832 5.36298-1.6266 5.62494-1.98678 5.89054-2.35062 6.02518-2.87453 6.02518-3.55857 6.02518-4.24261 5.89054-4.76654 5.62494-5.13035 5.36298-5.49417 4.98458-5.67612 4.48976-5.67612ZM4.48976-7.30612C5.7159-7.30612 6.67461-6.97323 7.3641-6.30922 8.05178-5.64883 8.39743-4.73198 8.39743-3.55861 8.39743-2.38888 8.05178-1.47198 7.3641-0.808014 6.67461-0.147631 5.7159 0.181628 4.48976 0.181628 3.25637 0.181628 2.29401-0.147645 1.60089-0.808014 0.905954-1.47203 0.560301-2.38888 0.560301-3.55861 0.560301-4.73198 0.905949-5.64888 1.60089-6.30922 2.29401-6.97323 3.25637-7.30612 4.48976-7.30612Z" stroke="#FFFFFF" stroke-width="10.4043" fill="#FFFFFF" transform="matrix(1 0 0 1.0014 2193.71 944.398)"/><path d="M7.70617-5.94531C7.99179-6.38555 8.33381-6.72393 8.73219-6.95679 9.12879-7.18965 9.5654-7.30608 10.042-7.30608 10.8606-7.30608 11.4846-7.05138 11.9121-6.54203 12.3433-6.03631 12.5598-5.305 12.5598-4.34441L12.5598-0.000186286 10.2676-0.000186286 10.2676-3.71863 10.2676-3.886C10.2712-3.94785 10.2748-4.03517 10.2748-4.14797 10.2748-4.65187 10.1984-5.01574 10.0492-5.23952 9.90369-5.46692 9.66538-5.58154 9.33612-5.58154 8.9032-5.58154 8.56844-5.4014 8.33195-5.04308 8.09365-4.6883 7.97177-4.17348 7.96814-3.50038L7.96814-0.0002608 5.67594-0.0002608 5.67594-3.71871C5.67594-4.50823 5.60682-5.01583 5.47219-5.23956 5.33573-5.46692 5.09379-5.58154 4.74451-5.58154 4.3079-5.58154 3.96951-5.40145 3.73302-5.04308 3.4947-4.68834 3.37646-4.17715 3.37646-3.50768L3.37646-0.000298057 1.08427-0.000298057 1.08427-7.13129 3.37646-7.13129 3.37646-6.0907C3.65661-6.49275 3.97682-6.79654 4.337-7.00029 4.70082-7.20404 5.10106-7.30594 5.53767-7.30594 6.03249-7.30594 6.46909-7.18588 6.84749-6.94939 7.22588-6.71103 7.5115-6.37632 7.70617-5.94521Z" stroke="#FFFFFF" stroke-width="10.4043" fill="#FFFFFF" transform="matrix(1 0 0 1.0014 2202.66 944.398)"/><path d="M3.58744-9.15408 3.58744-7.13111 5.93785-7.13111 5.93785-5.50111 3.58744-5.50111 3.58744-2.47397C3.58744-2.14287 3.65293-1.92093 3.78392-1.8045 3.9149-1.68807 4.17323-1.62986 4.56254-1.62986L5.7341-1.62986 5.7341 0.000139714 3.78392 0.000139714C2.8816 0.000139714 2.24124-0.185419 1.86285-0.560161 1.48809-0.938554 1.30255-1.57528 1.30255-2.47397L1.30255-5.50111 0.174633-5.50111 0.174633-7.13111 1.30255-7.13111 1.30255-9.15408Z" stroke="#FFFFFF" stroke-width="10.4043" fill="#FFFFFF" transform="matrix(1 0 0 1.0014 2220.79 944.398)"/><path d="M8.26643-4.34423 8.26643 0 5.97423 0 5.97423-3.31095C5.97423-3.93677 5.9597-4.36607 5.93059-4.59893 5.90148-4.83178 5.85235-5.00279 5.78505-5.11559 5.69773-5.26113 5.57581-5.37392 5.42119-5.45761 5.27021-5.53948 5.09738-5.5813 4.90453-5.5813 4.42792-5.5813 4.05497-5.39576 3.78393-5.02827 3.51105-4.66441 3.37643-4.15687 3.37643-3.50743L3.37643-4.65714e-05 1.09881-4.65714e-05 1.09881-9.91091 3.37643-9.91091 3.37643-6.09061C3.72025-6.50174 4.08408-6.80739 4.46797-7.00751 4.85544-7.20581 5.28297-7.30584 5.74868-7.30584 6.57276-7.30584 7.19859-7.05114 7.62607-6.54179 8.05178-6.03607 8.26643-5.30476 8.26643-4.34419Z" stroke="#FFFFFF" stroke-width="10.4043" fill="#FFFFFF" transform="matrix(1 0 0 1.0014 2227.02 944.398)"/><path d="M8.21566-3.58744 8.21566-2.93255 2.88184-2.93255C2.94005-2.39773 3.13289-1.99749 3.46398-1.7319 3.79326-1.46448 4.25714-1.33167 4.85386-1.33167 5.3341-1.33167 5.82348-1.4008 6.32375-1.5427 6.82765-1.68823 7.34431-1.9029 7.87369-2.19032L7.87369-0.436626C7.33523-0.232876 6.79672-0.0800656 6.25822 0.021814 5.71976 0.127326 5.18126 0.181903 4.64275 0.181903 3.35114 0.181903 2.34692-0.14555 1.63014-0.800474 0.917038-1.45536 0.56044-2.37408 0.56044-3.55839 0.56044-4.72267 0.911547-5.63589 1.61556-6.30172 2.31777-6.97118 3.28375-7.30589 4.51175-7.30589 5.63235-7.30589 6.52922-6.96569 7.20413-6.28714 7.87723-5.61223 8.21562-4.71172 8.21562-3.58745ZM5.87256-4.34423C5.87256-4.77539 5.74524-5.12286 5.49417-5.38482 5.24129-5.65042 4.91203-5.78505 4.50453-5.78505 4.06246-5.78505 3.70406-5.66136 3.42756-5.41393 3.15107-5.16649 2.97822-4.80994 2.9109-4.34423Z" stroke="#FFFFFF" stroke-width="10.4043" fill="#FFFFFF" transform="matrix(1 0 0 1.0014 2236.31 944.398)"/><path d="M1.20066-9.50336 3.93673-9.50336 7.39321-2.98336 7.39321-9.50336 9.71452-9.50336 9.71452 0 6.97845 0 3.52196-6.52 3.52196 0 1.20066 0Z" stroke="#FFFFFF" stroke-width="10.4043" fill="#FFFFFF" transform="matrix(1 0 0 1.0014 2249.69 944.398)"/><path d="M4.48976-5.67612C3.98404-5.67612 3.59834-5.49422 3.33274-5.13035 3.06532-4.76649 2.93252-4.24261 2.93252-3.55857 2.93252-2.87453 3.06532-2.3506 3.33274-1.98678 3.59834-1.62658 3.984-1.44832 4.48976-1.44832 4.98458-1.44832 5.36298-1.6266 5.62494-1.98678 5.89054-2.35062 6.02518-2.87453 6.02518-3.55857 6.02518-4.24261 5.89054-4.76654 5.62494-5.13035 5.36298-5.49417 4.98458-5.67612 4.48976-5.67612ZM4.48976-7.30612C5.7159-7.30612 6.67461-6.97323 7.3641-6.30922 8.05178-5.64883 8.39743-4.73198 8.39743-3.55861 8.39743-2.38888 8.05178-1.47198 7.3641-0.808014 6.67461-0.147631 5.7159 0.181628 4.48976 0.181628 3.25637 0.181628 2.29401-0.147645 1.60089-0.808014 0.905954-1.47203 0.560301-2.38888 0.560301-3.55861 0.560301-4.73198 0.905949-5.64888 1.60089-6.30922 2.29401-6.97323 3.25637-7.30612 4.48976-7.30612Z" stroke="#FFFFFF" stroke-width="10.4043" fill="#FFFFFF" transform="matrix(1 0 0 1.0014 2260.6 944.398)"/><path d="M1.01875-2.77975 1.01875-7.13129 3.31095-7.13129 3.31095-6.41819C3.31095-6.0289 3.30731-5.54498 3.30367-4.96284 3.29822-4.38069 3.29639-3.9914 3.29639-3.79855 3.29639-3.22004 3.31095-2.80528 3.34005-2.55421 3.3728-2.30134 3.42374-2.11942 3.49287-2.00844 3.58928-1.85744 3.71299-1.74102 3.86398-1.65915 4.01316-1.58093 4.18598-1.54272 4.38065-1.54272 4.85544-1.54272 5.22839-1.72464 5.50125-2.08849 5.77229-2.45233 5.90875-2.95808 5.90875-3.60933L5.90875-7.13129 8.18637-7.13129 8.18637-0.000279428 5.90875-0.000279428 5.90875-1.03361C5.56309-0.61519 5.19928-0.307744 4.81721-0.109443 4.43336 0.0833908 4.00947 0.181628 3.54376 0.181628 2.72331 0.181628 2.09748-0.0694193 1.66637-0.575157 1.2334-1.07906 1.01875-1.81405 1.01875-2.78003Z" stroke="#FFFFFF" stroke-width="10.4043" fill="#FFFFFF" transform="matrix(1 0 0 1.0014 2269.56 944.398)"/><path d="M8.26643-4.34423 8.26643 0 5.97423 0 5.97423-3.32548C5.97423-3.94036 5.9597-4.36607 5.93059-4.59893 5.90148-4.83178 5.85235-5.00279 5.78505-5.11559 5.69773-5.26113 5.57581-5.37392 5.42119-5.45761 5.27021-5.53948 5.09738-5.5813 4.90453-5.5813 4.42792-5.5813 4.05497-5.39576 3.78393-5.02827 3.51105-4.66441 3.37643-4.15687 3.37643-3.50743L3.37643-4.65714e-05 1.09881-4.65714e-05 1.09881-7.13106 3.37643-7.13106 3.37643-6.09047C3.72025-6.5016 4.08408-6.80725 4.46797-7.00737 4.85544-7.20567 5.28297-7.3057 5.74868-7.3057 6.57276-7.3057 7.19859-7.051 7.62607-6.54165 8.05178-6.03593 8.26643-5.30462 8.26643-4.34405Z" stroke="#FFFFFF" stroke-width="10.4043" fill="#FFFFFF" transform="matrix(1 0 0 1.0014 2278.85 944.398)"/><path d="M1.20066-9.50336 5.26839-9.50336C6.47636-9.50336 7.40229-9.23413 8.04815-8.69563 8.69758-8.1608 9.02326-7.3967 9.02326-6.40343 9.02326-5.40834 8.69763-4.64247 8.04815-4.10397 7.40234-3.56551 6.47636-3.29623 5.26839-3.29623L3.64566-3.29623 3.64566 0.000139714 1.20066 0.000139714ZM3.64566-7.72783 3.64566-5.07181 5.00643-5.07181C5.48122-5.07181 5.8469-5.18824 6.10523-5.4211 6.3672-5.65396 6.49816-5.9814 6.49816-6.40348 6.49816-6.82919 6.3672-7.15663 6.10523-7.38585 5.8469-7.61326 5.48127-7.72787 5.00643-7.72787Z" stroke="#FFFFFF" stroke-width="10.4043" fill="#FFFFFF" transform="matrix(1 0 0 1.0014 2292.67 944.398)"/><path d="M6.39612-5.18852C6.19237-5.27947 5.99043-5.34859 5.79213-5.39227 5.59746-5.43959 5.40103-5.46502 5.20272-5.46502 4.61513-5.46502 4.16395-5.27584 3.84927-4.89745 3.53273-4.52267 3.37629-3.98784 3.37629-3.28927L3.37629-0.000163 1.09867-0.000163 1.09867-7.1312 3.37629-7.1312 3.37629-5.95965C3.66736-6.42536 4.00211-6.76371 4.38046-6.9784 4.76249-7.19668 5.21912-7.30584 5.7485-7.30584 5.82492-7.30584 5.90861-7.30039 5.99593-7.29127 6.08688-7.28582 6.21784-7.2731 6.38885-7.25489Z" stroke="#FFFFFF" stroke-width="10.4043" fill="#FFFFFF" transform="matrix(1 0 0 1.0014 2302.23 944.398)"/><path d="M4.48976-5.67612C3.98404-5.67612 3.59834-5.49422 3.33274-5.13035 3.06532-4.76649 2.93252-4.24261 2.93252-3.55857 2.93252-2.87453 3.06532-2.3506 3.33274-1.98678 3.59834-1.62658 3.984-1.44832 4.48976-1.44832 4.98458-1.44832 5.36298-1.6266 5.62494-1.98678 5.89054-2.35062 6.02518-2.87453 6.02518-3.55857 6.02518-4.24261 5.89054-4.76654 5.62494-5.13035 5.36298-5.49417 4.98458-5.67612 4.48976-5.67612ZM4.48976-7.30612C5.7159-7.30612 6.67461-6.97323 7.3641-6.30922 8.05178-5.64883 8.39743-4.73198 8.39743-3.55861 8.39743-2.38888 8.05178-1.47198 7.3641-0.808014 6.67461-0.147631 5.7159 0.181628 4.48976 0.181628 3.25637 0.181628 2.29401-0.147645 1.60089-0.808014 0.905954-1.47203 0.560301-2.38888 0.560301-3.55861 0.560301-4.73198 0.905949-5.64888 1.60089-6.30922 2.29401-6.97323 3.25637-7.30612 4.48976-7.30612Z" stroke="#FFFFFF" stroke-width="10.4043" fill="#FFFFFF" transform="matrix(1 0 0 1.0014 2308.66 944.398)"/><path d="M1.09881-7.13101 3.37643-7.13101 3.37643-0.130866C3.37643 0.824221 3.14539 1.55372 2.68512 2.05943 2.2285 2.56334 1.56452 2.81622 0.691306 2.81622L-0.436607 2.81622-0.436607 1.31718-0.0363816 1.31718C0.394767 1.31718 0.691297 1.21894 0.851363 1.02611 1.01509 0.831453 1.09877 0.445782 1.09877-0.130912ZM1.09881-9.91077 3.37643-9.91077 3.37643-8.04791 1.09881-8.04791Z" stroke="#FFFFFF" stroke-width="10.4043" fill="#FFFFFF" transform="matrix(1 0 0 1.0014 2317.62 944.398)"/><path d="M8.21566-3.58744 8.21566-2.93255 2.88184-2.93255C2.94005-2.39773 3.13289-1.99749 3.46398-1.7319 3.79326-1.46448 4.25714-1.33167 4.85386-1.33167 5.3341-1.33167 5.82348-1.4008 6.32375-1.5427 6.82765-1.68823 7.34431-1.9029 7.87369-2.19032L7.87369-0.436626C7.33523-0.232876 6.79672-0.0800656 6.25822 0.021814 5.71976 0.127326 5.18126 0.181903 4.64275 0.181903 3.35114 0.181903 2.34692-0.14555 1.63014-0.800474 0.917038-1.45536 0.56044-2.37408 0.56044-3.55839 0.56044-4.72267 0.911547-5.63589 1.61556-6.30172 2.31777-6.97118 3.28375-7.30589 4.51175-7.30589 5.63235-7.30589 6.52922-6.96569 7.20413-6.28714 7.87723-5.61223 8.21562-4.71172 8.21562-3.58745ZM5.87256-4.34423C5.87256-4.77539 5.74524-5.12286 5.49417-5.38482 5.24129-5.65042 4.91203-5.78505 4.50453-5.78505 4.06246-5.78505 3.70406-5.66136 3.42756-5.41393 3.15107-5.16649 2.97822-4.80994 2.9109-4.34423Z" stroke="#FFFFFF" stroke-width="10.4043" fill="#FFFFFF" transform="matrix(1 0 0 1.0014 2322.09 944.398)"/><path d="M6.85485-6.90561 6.85485-5.05002C6.5492-5.26285 6.23815-5.42114 5.92342-5.523 5.61232-5.62485 5.29033-5.6758 4.95562-5.6758 4.31889-5.6758 3.82226-5.48844 3.46389-5.1155 3.10914-4.74619 2.93269-4.22776 2.93269-3.55825 2.93269-2.89242 3.10916-2.37394 3.46389-2.001 3.82227-1.6317 4.31889-1.44796 4.95562-1.44796 5.30854-1.44796 5.64692-1.4989 5.9671-1.60077 6.28728-1.70628 6.58198-1.86456 6.85485-2.07375L6.85485-0.210894C6.50011-0.0799119 6.13807 0.0165049 5.77062 0.0801773 5.40675 0.147487 5.03749 0.182052 4.66455 0.182052 3.37838 0.182052 2.37235-0.147222 1.64467-0.80759 0.920624-1.46616 0.56044-2.38301 0.56044-3.55819 0.56044-4.73701 0.920642-5.65573 1.64467-6.31611 2.37235-6.97467 3.37838-7.30575 4.66455-7.30575 5.03749-7.30575 5.4068-7.27119 5.77062-7.20385 6.13443-7.14019 6.49466-7.04015 6.85485-6.90552Z" stroke="#FFFFFF" stroke-width="10.4043" fill="#FFFFFF" transform="matrix(1 0 0 1.0014 2330.93 944.398)"/><path d="M3.58744-9.15408 3.58744-7.13111 5.93785-7.13111 5.93785-5.50111 3.58744-5.50111 3.58744-2.47397C3.58744-2.14287 3.65293-1.92093 3.78392-1.8045 3.9149-1.68807 4.17323-1.62986 4.56254-1.62986L5.7341-1.62986 5.7341 0.000139714 3.78392 0.000139714C2.8816 0.000139714 2.24124-0.185419 1.86285-0.560161 1.48809-0.938554 1.30255-1.57528 1.30255-2.47397L1.30255-5.50111 0.174633-5.50111 0.174633-7.13111 1.30255-7.13111 1.30255-9.15408Z" stroke="#FFFFFF" stroke-width="10.4043" fill="#FFFFFF" transform="matrix(1 0 0 1.0014 2338.66 944.398)"/></g></g></g></g></svg>